<mxfile host="Electron" agent="Mozilla/5.0 (Windows NT 10.0; Win64; x64) AppleWebKit/537.36 (KHTML, like Gecko) draw.io/26.1.1 Chrome/132.0.6834.210 Electron/34.3.3 Safari/537.36" version="26.1.1">
  <diagram name="第 1 页" id="YE1NN4_8z4oJuWLOnsad">
    <mxGraphModel dx="106" dy="-543" grid="1" gridSize="10" guides="1" tooltips="1" connect="1" arrows="1" fold="1" page="1" pageScale="1" pageWidth="827" pageHeight="1169" math="0" shadow="0">
      <root>
        <mxCell id="0" />
        <mxCell id="1" parent="0" />
        <mxCell id="Woupkxnf32XxdwBppOrR-3" value="" style="edgeStyle=orthogonalEdgeStyle;rounded=0;orthogonalLoop=1;jettySize=auto;html=1;" edge="1" parent="1" source="Woupkxnf32XxdwBppOrR-1" target="Woupkxnf32XxdwBppOrR-2">
          <mxGeometry relative="1" as="geometry" />
        </mxCell>
        <mxCell id="Woupkxnf32XxdwBppOrR-1" value="重生成" style="rounded=1;whiteSpace=wrap;html=1;" vertex="1" parent="1">
          <mxGeometry x="860" y="1440" width="120" height="60" as="geometry" />
        </mxCell>
        <mxCell id="Woupkxnf32XxdwBppOrR-6" value="" style="edgeStyle=orthogonalEdgeStyle;rounded=0;orthogonalLoop=1;jettySize=auto;html=1;" edge="1" parent="1" source="Woupkxnf32XxdwBppOrR-2" target="Woupkxnf32XxdwBppOrR-5">
          <mxGeometry relative="1" as="geometry" />
        </mxCell>
        <mxCell id="Woupkxnf32XxdwBppOrR-2" value="CdFtrRegenUtil" style="whiteSpace=wrap;html=1;rounded=1;" vertex="1" parent="1">
          <mxGeometry x="1060" y="1440" width="120" height="60" as="geometry" />
        </mxCell>
        <mxCell id="Woupkxnf32XxdwBppOrR-4" value="CdPlayNext" style="text;html=1;align=center;verticalAlign=middle;resizable=0;points=[];autosize=1;strokeColor=none;fillColor=none;" vertex="1" parent="1">
          <mxGeometry x="835" y="1328" width="90" height="30" as="geometry" />
        </mxCell>
        <mxCell id="Woupkxnf32XxdwBppOrR-8" value="" style="edgeStyle=orthogonalEdgeStyle;rounded=0;orthogonalLoop=1;jettySize=auto;html=1;" edge="1" parent="1" source="Woupkxnf32XxdwBppOrR-5" target="Woupkxnf32XxdwBppOrR-7">
          <mxGeometry relative="1" as="geometry" />
        </mxCell>
        <mxCell id="Woupkxnf32XxdwBppOrR-5" value="InEval" style="whiteSpace=wrap;html=1;rounded=1;" vertex="1" parent="1">
          <mxGeometry x="1260" y="1440" width="120" height="60" as="geometry" />
        </mxCell>
        <mxCell id="Woupkxnf32XxdwBppOrR-10" value="" style="edgeStyle=orthogonalEdgeStyle;rounded=0;orthogonalLoop=1;jettySize=auto;html=1;" edge="1" parent="1" source="Woupkxnf32XxdwBppOrR-7" target="Woupkxnf32XxdwBppOrR-9">
          <mxGeometry relative="1" as="geometry" />
        </mxCell>
        <mxCell id="Woupkxnf32XxdwBppOrR-7" value="InEvalCmd" style="whiteSpace=wrap;html=1;rounded=1;" vertex="1" parent="1">
          <mxGeometry x="1460" y="1440" width="120" height="60" as="geometry" />
        </mxCell>
        <mxCell id="Woupkxnf32XxdwBppOrR-12" value="" style="edgeStyle=orthogonalEdgeStyle;rounded=0;orthogonalLoop=1;jettySize=auto;html=1;" edge="1" parent="1" source="Woupkxnf32XxdwBppOrR-9" target="Woupkxnf32XxdwBppOrR-11">
          <mxGeometry relative="1" as="geometry" />
        </mxCell>
        <mxCell id="Woupkxnf32XxdwBppOrR-9" value="InDistributeCmd" style="whiteSpace=wrap;html=1;rounded=1;" vertex="1" parent="1">
          <mxGeometry x="1660" y="1440" width="120" height="60" as="geometry" />
        </mxCell>
        <mxCell id="Woupkxnf32XxdwBppOrR-14" value="" style="edgeStyle=orthogonalEdgeStyle;rounded=0;orthogonalLoop=1;jettySize=auto;html=1;" edge="1" parent="1" source="Woupkxnf32XxdwBppOrR-11" target="Woupkxnf32XxdwBppOrR-13">
          <mxGeometry relative="1" as="geometry" />
        </mxCell>
        <mxCell id="Woupkxnf32XxdwBppOrR-11" value="InFeatureOp" style="whiteSpace=wrap;html=1;rounded=1;" vertex="1" parent="1">
          <mxGeometry x="1860" y="1440" width="120" height="60" as="geometry" />
        </mxCell>
        <mxCell id="Woupkxnf32XxdwBppOrR-16" value="" style="edgeStyle=orthogonalEdgeStyle;rounded=0;orthogonalLoop=1;jettySize=auto;html=1;" edge="1" parent="1" source="Woupkxnf32XxdwBppOrR-13" target="Woupkxnf32XxdwBppOrR-15">
          <mxGeometry relative="1" as="geometry" />
        </mxCell>
        <mxCell id="Woupkxnf32XxdwBppOrR-13" value="用函数指针执行具体的命令" style="whiteSpace=wrap;html=1;rounded=1;" vertex="1" parent="1">
          <mxGeometry x="2060" y="1440" width="120" height="60" as="geometry" />
        </mxCell>
        <mxCell id="Woupkxnf32XxdwBppOrR-19" value="" style="edgeStyle=orthogonalEdgeStyle;rounded=0;orthogonalLoop=1;jettySize=auto;html=1;" edge="1" parent="1" source="Woupkxnf32XxdwBppOrR-15" target="Woupkxnf32XxdwBppOrR-18">
          <mxGeometry relative="1" as="geometry" />
        </mxCell>
        <mxCell id="Woupkxnf32XxdwBppOrR-15" value="FtAllExt" style="whiteSpace=wrap;html=1;rounded=1;" vertex="1" parent="1">
          <mxGeometry x="2260" y="1440" width="120" height="60" as="geometry" />
        </mxCell>
        <mxCell id="Woupkxnf32XxdwBppOrR-17" value="拉伸" style="text;html=1;align=center;verticalAlign=middle;resizable=0;points=[];autosize=1;strokeColor=none;fillColor=none;" vertex="1" parent="1">
          <mxGeometry x="2290" y="1380" width="50" height="30" as="geometry" />
        </mxCell>
        <mxCell id="Woupkxnf32XxdwBppOrR-21" value="" style="edgeStyle=orthogonalEdgeStyle;rounded=0;orthogonalLoop=1;jettySize=auto;html=1;" edge="1" parent="1" source="Woupkxnf32XxdwBppOrR-18" target="Woupkxnf32XxdwBppOrR-20">
          <mxGeometry relative="1" as="geometry" />
        </mxCell>
        <mxCell id="Woupkxnf32XxdwBppOrR-18" value="FtAllExt" style="whiteSpace=wrap;html=1;rounded=1;" vertex="1" parent="1">
          <mxGeometry x="2460" y="1440" width="120" height="60" as="geometry" />
        </mxCell>
        <mxCell id="Woupkxnf32XxdwBppOrR-20" value="FtBaseExtInqAddFtr" style="whiteSpace=wrap;html=1;rounded=1;" vertex="1" parent="1">
          <mxGeometry x="2660" y="1440" width="120" height="60" as="geometry" />
        </mxCell>
        <mxCell id="Woupkxnf32XxdwBppOrR-22" value="Cad::Handle::inqObjGetPrf" style="whiteSpace=wrap;html=1;" vertex="1" parent="1">
          <mxGeometry x="2870" y="1450" width="200" height="60" as="geometry" />
        </mxCell>
      </root>
    </mxGraphModel>
  </diagram>
</mxfile>
